<?xml version="1.0" encoding="UTF-8"?>
<svg version="1.1" xmlns="http://www.w3.org/2000/svg" width="399" height="399">
<path d="M0 0 C8.58 0 17.16 0 26 0 C26 0.66 26 1.32 26 2 C26.78117187 2.03738281 27.56234375 2.07476562 28.3671875 2.11328125 C35.71868647 2.530794 42.97910904 3.21858289 50.28540039 4.14501953 C71.08091872 6.74464935 90.28432638 6.02140468 111.00756836 3.42358398 C111.74660904 3.33165268 112.48564972 3.23972137 113.24708557 3.14500427 C115.27390556 2.89062931 117.29982909 2.62914059 119.32568359 2.3671875 C122.91206509 2.00878765 126.3985818 1.93488961 130 2 C130 1.34 130 0.68 130 0 C138.58 0 147.16 0 156 0 C156 0.66 156 1.32 156 2 C156.87785156 2.00386719 156.87785156 2.00386719 157.7734375 2.0078125 C184.45133514 3.2095196 207.51660786 20.20849794 225 39 C228 42.6263048 228 42.6263048 228 45 C228.66 45 229.32 45 230 45 C236.01129244 55.0989713 241.63931738 65.7043723 245 77 C245.44859375 78.46566406 245.44859375 78.46566406 245.90625 79.9609375 C252.86990706 107.62213082 248.17453645 137.50768108 234 162 C229.71567438 168.89691476 225.03265353 175.51392917 219 181 C218.34 181 217.68 181 217 181 C216.7525 181.5775 216.505 182.155 216.25 182.75 C214.80606301 185.34908658 213.26478013 187.07836838 211 189 C210.01 189 209.02 189 208 189 C207.79375 189.5775 207.5875 190.155 207.375 190.75 C205.4725335 193.863127 203.13705107 195.20739939 200 197 C199.01 197 198.02 197 197 197 C197 197.66 197 198.32 197 199 C195.11076602 200.01241247 193.21330056 201.00947425 191.3125 202 C190.25675781 202.556875 189.20101563 203.11375 188.11328125 203.6875 C185.07773738 204.9672274 183.23973174 205.28851043 180 205 C180 205.66 180 206.32 180 207 C178.04379422 207.63162757 176.08488929 208.25489646 174.125 208.875 C173.03445313 209.22304688 171.94390625 209.57109375 170.8203125 209.9296875 C162.05750257 212.38470787 153.85456559 213.38647521 144.75 213.375 C143.59628906 213.37556396 142.44257813 213.37612793 141.25390625 213.37670898 C129.56719031 213.23344337 118.22844996 211.71025764 106.6875 209.97265625 C81.03302031 206.11682733 55.90231407 208.68335539 30.39501953 212.54589844 C11.84064823 215.02764233 -6.39270679 213.06018464 -24 207 C-24 206.34 -24 205.68 -24 205 C-24.969375 204.938125 -25.93875 204.87625 -26.9375 204.8125 C-31.88225603 204.14374201 -35.81116224 201.57409304 -40 199 C-40 198.34 -40 197.68 -40 197 C-40.680625 196.938125 -41.36125 196.87625 -42.0625 196.8125 C-45.95451162 195.73598615 -49.03444754 193.74334968 -52 191 C-52 190.34 -52 189.68 -52 189 C-52.556875 188.7525 -53.11375 188.505 -53.6875 188.25 C-56.42410913 186.77075182 -58.67650869 185.06532561 -61 183 C-61 182.34 -61 181.68 -61 181 C-61.84498047 180.67708984 -61.84498047 180.67708984 -62.70703125 180.34765625 C-75.77781852 172.665507 -84.8044146 149.9863705 -88.51220703 136.02783203 C-95.35358291 107.58715733 -92.42745041 78.66481339 -77.9140625 53.05859375 C-74.60456638 47.77015404 -70.91483351 42.8524772 -67 38 C-66.07960938 36.83017578 -66.07960938 36.83017578 -65.140625 35.63671875 C-50.1613437 17.61677137 -28.48698632 7.11283057 -6 2 C-2.5 1.875 -2.5 1.875 0 2 C0 1.34 0 0.68 0 0 Z M-59 40 C-79.18603831 63.00130181 -85.82925309 89.7541656 -84 120 C-81.45119875 143.77587359 -68.63434825 164.36565175 -52 181 C-51.01 181 -50.02 181 -49 181 C-48.79375 181.5775 -48.5875 182.155 -48.375 182.75 C-46.4725335 185.863127 -44.13705107 187.20739939 -41 189 C-40.01 189 -39.02 189 -38 189 C-37.67 189.99 -37.34 190.98 -37 192 C-35.08951066 193.46362174 -35.08951066 193.46362174 -32.75 194.6875 C-31.98171875 195.12449219 -31.2134375 195.56148437 -30.421875 196.01171875 C-27.76304991 197.09669092 -25.84367675 197.18655326 -23 197 C-23 197.66 -23 198.32 -23 199 C-20.60539412 199.81627446 -18.20943474 200.62811645 -15.8125 201.4375 C-15.13896484 201.66759766 -14.46542969 201.89769531 -13.77148438 202.13476562 C-7.51040856 204.24215212 -1.97526985 205.16798151 4.6171875 205.23828125 C5.7185051 205.25038887 5.7185051 205.25038887 6.84207153 205.26274109 C8.39696937 205.27653611 9.95189691 205.28727864 11.50683594 205.29516602 C13.06780124 205.30659164 14.62873046 205.32689085 16.18945312 205.35668945 C29.03523094 205.60130586 40.02918733 203.99181485 52 199 C52 198.34 52 197.68 52 197 C52.969375 196.938125 53.93875 196.87625 54.9375 196.8125 C59.88225603 196.14374201 63.81116224 193.57409304 68 191 C68 190.34 68 189.68 68 189 C69.32 188.67 70.64 188.34 72 188 C69.50668377 184.26002565 67.28845013 181.04486278 63.75 178.25 C61 176 61 176 60 173 C59.175 172.175 58.35 171.35 57.5 170.5 C55 168 55 168 54 165 C53.34 165 52.68 165 52 165 C51.73832031 164.31421875 51.47664062 163.6284375 51.20703125 162.921875 C49.84250793 159.61875705 48.26614582 156.45629617 46.6875 153.25 C43.99832836 147.62654627 41.8723847 141.98312953 40.125 136 C39.82082153 134.96020996 39.82082153 134.96020996 39.51049805 133.89941406 C31.8750873 106.5504612 37.29206331 76.56812755 51.0234375 52.16015625 C56.88981325 42.78091122 63.91430506 34.55836701 72 27 C68.74884505 23.30438336 65.05097108 21.19605511 60.6875 19.0625 C59.98399414 18.71622559 59.28048828 18.36995117 58.55566406 18.01318359 C17.96930875 -1.46354972 -27.66812774 8.03240859 -59 40 Z M85 27 C85.52207031 27.47566406 86.04414063 27.95132813 86.58203125 28.44140625 C102.43403171 43.51607569 112.5160392 61.95224763 118 83 C118.24621094 83.93328125 118.49242187 84.8665625 118.74609375 85.828125 C123.89052212 110.09563538 119.56957447 138.33306078 106.875 159.6875 C105.92716328 161.13194266 104.96949075 162.57000115 104 164 C103.12237515 165.45675521 102.24726091 166.91502671 101.375 168.375 C99.51785826 171.32526947 97.5484373 173.60147077 95 176 C93.8010164 177.32301639 92.61464298 178.65751409 91.4375 180 C90.56931641 180.99 90.56931641 180.99 89.68359375 182 C88.04317461 183.94871137 86.50743837 185.94731796 85 188 C86.32 188.33 87.64 188.66 89 189 C89 189.66 89 190.32 89 191 C90.74404788 192.01034498 92.49549561 193.00792422 94.25 194 C95.22453125 194.556875 96.1990625 195.11375 97.203125 195.6875 C100.08859689 197.28321504 100.08859689 197.28321504 104 197 C104 197.66 104 198.32 104 199 C106.56151683 199.81571218 109.12412628 200.62766131 111.6875 201.4375 C112.40873047 201.66759766 113.12996094 201.89769531 113.87304688 202.13476562 C114.57880859 202.35712891 115.28457031 202.57949219 116.01171875 202.80859375 C116.65584717 203.01282959 117.29997559 203.21706543 117.96362305 203.42749023 C124.91632164 205.3821813 131.85715694 205.25756752 139.0246582 205.29516602 C140.53028851 205.30657352 142.0358821 205.32684244 143.54125977 205.35668945 C156.38359711 205.61055786 168.03943172 204.06774763 180 199 C180 198.34 180 197.68 180 197 C180.804375 196.938125 181.60875 196.87625 182.4375 196.8125 C187.1635451 195.73463007 190.87513427 193.48408581 195 191 C195 190.34 195 189.68 195 189 C195.58265625 188.88527344 196.1653125 188.77054688 196.765625 188.65234375 C199.16523135 187.95175938 200.72860933 187.01807405 202.75 185.5625 C203.36359375 185.13066406 203.9771875 184.69882812 204.609375 184.25390625 C205.06828125 183.84011719 205.5271875 183.42632812 206 183 C206 182.34 206 181.68 206 181 C206.5775 180.7525 207.155 180.505 207.75 180.25 C210.32939979 178.81700012 212.06121592 177.21575324 214 175 C214 174.34 214 173.68 214 173 C214.57234375 172.78214844 215.1446875 172.56429687 215.734375 172.33984375 C218.73587034 170.56482151 220.22393049 168.38774137 222.25 165.5625 C222.95640625 164.59441406 223.6628125 163.62632812 224.390625 162.62890625 C226.26105812 160.08729741 226.26105812 160.08729741 226 157 C226.66 157 227.32 157 228 157 C241.27344137 132.91623009 244.68632022 106.00958228 237.70214844 79.35888672 C235.79183215 72.94112733 232.99867765 66.9700325 230 61 C229.58878906 60.14148438 229.17757812 59.28296875 228.75390625 58.3984375 C217.90261149 37.14642077 196.28226619 20.30394796 173.85498047 12.76489258 C146.91409174 4.32453048 106.00203577 4.55287003 85 27 Z M72.82519531 35.75708008 C72.04547363 36.55795044 72.04547363 36.55795044 71.25 37.375 C70.44320801 38.19810669 70.44320801 38.19810669 69.62011719 39.0378418 C57.14940454 52.00655608 49.52163671 67.75553934 45 85 C44.75378906 85.88429687 44.50757813 86.76859375 44.25390625 87.6796875 C38.40758944 112.91964833 45.57676712 140.44308541 59 162 C61.7431685 165.87182596 64.67023018 169.61597731 68 173 C68.66 173 69.32 173 70 173 C70.2475 173.5775 70.495 174.155 70.75 174.75 C72.18299988 177.32939979 73.78424676 179.06121592 76 181 C76.66 181 77.32 181 78 181 C78.33 181.66 78.66 182.32 79 183 C79 182.34 79 181.68 79 181 C79.5775 180.7525 80.155 180.505 80.75 180.25 C83.32939979 178.81700012 85.06121592 177.21575324 87 175 C87 174.34 87 173.68 87 173 C87.99 172.67 88.98 172.34 90 172 C92.94560682 168.53938303 95.44260714 164.75312044 98 161 C98.53109375 160.24589844 99.0621875 159.49179688 99.609375 158.71484375 C113.96113799 136.83997919 116.58344646 109.46813426 111.54345703 84.36328125 C110.07248583 77.96660507 107.70921151 71.96360629 105 66 C104.70996094 65.36078613 104.41992188 64.72157227 104.12109375 64.06298828 C99.48179744 54.11912861 93.47210523 45.99967462 86 38 C85.4834082 37.43812988 84.96681641 36.87625977 84.43457031 36.29736328 C83.01780847 34.80412601 81.51338646 33.39521793 80 32 C76.29281835 32 75.37448109 33.24050931 72.82519531 35.75708008 Z " fill="#FFFFFF" transform="translate(122,92)"/>
</svg>
